<?xml version="1.0" encoding="UTF-8" standalone="no"?>
<!DOCTYPE svg PUBLIC "-//W3C//DTD SVG 1.1//EN" "http://www.w3.org/Graphics/SVG/1.1/DTD/svg11.dtd">
<svg width="100%" height="100%" viewBox="0 0 64 64" version="1.1" xmlns="http://www.w3.org/2000/svg" xmlns:xlink="http://www.w3.org/1999/xlink" xml:space="preserve" xmlns:serif="http://www.serif.com/" style="fill-rule:evenodd;clip-rule:evenodd;stroke-linejoin:round;stroke-miterlimit:2;">
    <rect x="0" y="0" width="64" height="64" style="fill:rgb(26,188,156);fill-rule:nonzero;"/>
    <g transform="matrix(0.0648839,0,0,0.0648839,8.47006,14.3691)">
        <path d="M518,0C456.398,0 406,50.398 406,112L280,142.801C260.398,109.199 224,84 182,84C120.398,84 70,134.398 70,196C70,257.602 120.398,308 182,308C198.801,308 212.801,305.199 226.801,299.602L291.199,380.801C274.398,397.602 266,422.801 266,448C266,509.602 316.398,560 378,560C439.602,560 490,509.602 490,448C490,411.602 473.199,380.801 445.199,358.398L501.199,221.198C506.801,223.998 512.398,223.998 518,223.998C579.602,223.998 630,173.6 630,111.998C630,50.396 579.602,-0.002 518,-0.002L518,0ZM182,252C151.199,252 126,226.801 126,196C126,165.199 151.199,140 182,140C212.801,140 238,165.199 238,196C238,226.801 212.801,252 182,252ZM378,504C347.199,504 322,478.801 322,448C322,417.199 347.199,392 378,392C408.801,392 434,417.199 434,448C434,478.801 408.801,504 378,504ZM394.801,338.8C369.602,333.198 347.199,341.601 336,347.198L271.602,263.198C285.602,246.397 294,221.198 294,195.999L420,165.198C428.398,179.198 436.801,190.397 450.801,201.596L394.801,338.8ZM518.001,168C487.2,168 462.001,142.801 462.001,112C462.001,81.199 487.2,56 518.001,56C548.802,56 574.001,81.199 574.001,112C574.001,142.801 548.802,168 518.001,168Z" style="fill:white;fill-rule:nonzero;"/>
    </g>
</svg>
